<svg width="26" height="14" viewBox="0 0 26 14" fill="none" xmlns="http://www.w3.org/2000/svg">
<path id="Vector" d="M24.1746 5.83333H2.08748C1.32823 5.83333 0.707031 6.35833 0.707031 7C0.707031 7.64167 1.32823 8.16667 2.08748 8.16667H24.1746C24.9339 8.16667 25.5551 7.64167 25.5551 7C25.5551 6.35833 24.9339 5.83333 24.1746 5.83333ZM2.08748 14H15.8919C16.6512 14 17.2724 13.475 17.2724 12.8333C17.2724 12.1917 16.6512 11.6667 15.8919 11.6667H2.08748C1.32823 11.6667 0.707031 12.1917 0.707031 12.8333C0.707031 13.475 1.32823 14 2.08748 14ZM24.1746 0H2.08748C1.32823 0 0.707031 0.525 0.707031 1.16667V1.17833C0.707031 1.82 1.32823 2.345 2.08748 2.345H24.1746C24.9339 2.345 25.5551 1.82 25.5551 1.17833V1.16667C25.5551 0.525 24.9339 0 24.1746 0Z" fill="black"/>
</svg>
